<svg width="20" height="19" viewBox="0 0 20 19" fill="none" xmlns="http://www.w3.org/2000/svg">
<path d="M1.5 1.5H2.10632C3.12694 1.5 3.98384 2.2685 4.09452 3.28311L4.90548 10.7169C5.01616 11.7315 5.87306 12.5 6.89368 12.5H15.546C16.4602 12.5 17.2581 11.8801 17.484 10.9942L18.8639 5.58311C19.1864 4.31854 18.231 3.08889 16.926 3.08889H5.1M5.12476 16.1249H5.87476M5.12476 16.8749H5.87476M16.1248 16.1249H16.8748M16.1248 16.8749H16.8748M6.5 16.5C6.5 17.0523 6.05229 17.5 5.5 17.5C4.94772 17.5 4.5 17.0523 4.5 16.5C4.5 15.9477 4.94772 15.5 5.5 15.5C6.05229 15.5 6.5 15.9477 6.5 16.5ZM17.5 16.5C17.5 17.0523 17.0523 17.5 16.5 17.5C15.9477 17.5 15.5 17.0523 15.5 16.5C15.5 15.9477 15.9477 15.5 16.5 15.5C17.0523 15.5 17.5 15.9477 17.5 16.5Z" stroke="white" stroke-width="2" stroke-linecap="round"/>
</svg>
